<svg width="55" height="56" viewBox="0 0 55 56" fill="none" xmlns="http://www.w3.org/2000/svg">
<path d="M26.2124 24.2752C27.3664 24.7173 28.4624 25.2887 29.4796 25.9762C32.9548 28.3966 35.2197 31.6133 35.9316 35.7254C36.6154 39.6876 35.7162 43.3951 33.5786 46.8046C30.6449 51.4825 26.2724 54.0584 20.7384 54.8415C17.6379 55.3155 14.4681 55.0719 11.4838 54.1315C8.3477 53.148 5.61442 51.224 3.6792 48.6387C1.7215 46.0572 0.666775 43.114 0.0167062 40.0098C-0.0320022 39.7757 0.0167048 39.6895 0.284601 39.6913C1.8339 39.7007 3.3832 39.7082 4.9325 39.6913C5.26409 39.6913 5.30904 39.8712 5.36899 40.0866C5.79425 41.6565 6.42373 43.1702 7.24053 44.5865C8.92097 47.4397 11.5119 49.0658 14.781 49.6747C17.9077 50.2554 21.0044 50.0999 23.9044 48.753C27.6474 47.0126 30.0098 44.165 30.6767 40.1278C31.5666 34.7475 27.8966 29.4907 22.2408 28.0669C20.0489 27.5442 17.8102 27.2295 15.5565 27.1283C14.9552 27.0927 14.9552 27.0984 14.9552 26.527C14.9552 25.2512 14.9702 23.9754 14.9439 22.6978C14.9364 22.3381 15.0601 22.2613 15.401 22.2575C18.0594 22.2575 20.6765 21.6206 23.0183 20.4028C25.1315 19.29 26.6864 17.7089 27.2746 15.4046C27.6362 14.1251 27.64 12.7744 27.284 11.493C26.9281 10.2116 26.2255 9.04631 25.2495 8.11523C22.9227 5.73039 19.9871 4.91547 16.6956 5.14964C12.8064 5.42503 10.2436 7.54197 8.51256 10.7829C8.09479 11.551 7.7276 12.3435 7.40913 13.1547C7.38852 13.2614 7.32482 13.357 7.2349 13.4207C7.14498 13.4844 7.0307 13.5125 6.92017 13.4994C5.3128 13.4844 3.7073 13.4844 2.09992 13.4994C1.79831 13.4994 1.7702 13.4151 1.83389 13.1622C2.63196 9.99987 3.9321 7.08111 6.26636 4.67754C8.32148 2.49691 11.0323 0.998186 14.0147 0.391205C18.3217 -0.478051 22.4357 0.0783508 26.2162 2.29083C30.5119 4.80306 32.9829 8.48054 33.1421 13.402C33.2676 17.2331 31.5853 20.311 28.5373 22.7184C27.8029 23.2898 27.0255 23.8087 26.2143 24.2733L26.2124 24.2752Z" fill="#2D0DB2"/>
<path d="M17.6887 4.90558C17.2784 4.90558 16.8775 4.78756 16.5384 4.57024C16.1975 4.35105 15.9314 4.04194 15.7759 3.6785C15.6186 3.31506 15.5774 2.91603 15.656 2.53011C15.7347 2.14419 15.9314 1.79012 16.2218 1.51098C16.5103 1.23184 16.8794 1.04263 17.2803 0.963951C17.6812 0.885269 18.099 0.922734 18.4774 1.07261C18.8577 1.2206 19.1818 1.47351 19.4122 1.79949C19.6426 2.12546 19.7663 2.50763 19.77 2.90104C19.7719 3.16332 19.7213 3.42559 19.6164 3.66913C19.5134 3.91267 19.3598 4.13374 19.1668 4.32108C18.9738 4.50842 18.7434 4.65454 18.4886 4.75571C18.2338 4.85687 17.9622 4.90745 17.6887 4.90558Z" fill="#E06B00"/>
<path d="M3.72123 45.1825C3.31283 45.175 2.91754 45.0514 2.58407 44.8266C2.25061 44.6036 1.99208 44.2889 1.84408 43.9255C1.69608 43.562 1.66423 43.163 1.75041 42.7827C1.83846 42.4005 2.04266 42.0539 2.33678 41.7823C2.63091 41.5125 3.00184 41.3308 3.40275 41.2633C3.80365 41.1959 4.21767 41.2427 4.59047 41.4001C4.96328 41.5575 5.27989 41.816 5.49908 42.1457C5.71827 42.4754 5.83066 42.8595 5.8213 43.2491C5.80631 43.7718 5.57776 44.2664 5.18435 44.628C4.79094 44.9895 4.26451 45.1881 3.71935 45.1806L3.72123 45.1825Z" fill="#E06B00"/>
<path d="M32.393 45.1859C31.994 45.1709 31.6062 45.0435 31.2821 44.8206C30.958 44.5958 30.7088 44.2848 30.5683 43.9269C30.4278 43.5673 30.3997 43.1776 30.4878 42.8029C30.5777 42.4282 30.78 42.0892 31.0685 41.825C31.3589 41.5609 31.7242 41.3847 32.1176 41.3173C32.511 41.2517 32.9176 41.2967 33.2847 41.4503C33.6519 41.6039 33.9629 41.8569 34.1802 42.1791C34.3975 42.5013 34.51 42.8778 34.5043 43.2619C34.4875 43.7846 34.257 44.2792 33.8617 44.6388C33.4665 44.9985 32.9382 45.1952 32.393 45.184V45.1859Z" fill="#E06B00"/>
<path d="M49.8917 51.3477C49.0618 52.0015 48.0876 52.4624 47.0422 52.6947C45.9969 52.9289 44.9103 52.927 43.865 52.6928C42.4618 52.4193 41.1785 51.743 40.1856 50.7538C39.1927 49.7647 38.5389 48.5095 38.3085 47.1551C38.2429 46.7186 38.2017 46.2783 38.1848 45.8362C38.1474 44.2251 38.6888 42.6514 39.721 41.3775C40.7514 40.1055 42.2089 39.2118 43.8462 38.8465C46.78 38.2302 49.2042 39.1781 51.0326 41.43C52.2203 42.9024 52.7655 44.759 52.5538 46.6099C52.3402 48.4608 51.3867 50.1581 49.8917 51.3477ZM44.4363 2.20662C45.5248 2.1167 46.6207 2.27032 47.638 2.65249C48.6553 3.03466 49.5676 3.63789 50.302 4.41348C51.0213 5.22841 51.5309 6.19508 51.7857 7.23482C51.8419 7.41841 51.8082 7.4971 51.6021 7.48024H38.5295C38.4134 7.48024 38.2991 7.47087 38.183 7.46525C38.9623 4.25424 41.4408 2.36586 44.4326 2.21037V2.20662H44.4363ZM47.9021 36.7296C47.919 36.7071 47.9302 36.6734 47.9508 36.6678C48.0183 36.6472 48.0876 36.6322 48.1588 36.6191C50.4631 36.1788 52.5126 34.9311 53.9064 33.1196C54.0712 32.9041 54.06 32.8236 53.824 32.6905C53.4118 32.462 53.0128 32.211 52.6325 31.9356C52.3365 31.7145 52.1566 31.7257 51.9019 32.0124C50.6748 33.453 48.9288 34.3991 47.0104 34.6707C43.9062 35.1297 40.6015 34.1162 38.8667 31.2986C37.5497 29.1592 37.3343 26.883 38.4452 24.6274C40.3936 20.6746 44.8897 19.7435 48.6234 20.9593C49.9442 21.3958 51.1019 22.1958 51.9506 23.258C52.1566 23.509 52.3103 23.5334 52.58 23.3498C52.9791 23.0781 53.4043 22.8421 53.8296 22.606C54.0244 22.4955 54.0918 22.4206 53.9457 22.2033C53.4174 21.4071 52.7374 20.7139 51.9431 20.1575C50.5305 19.2321 48.9119 18.6344 47.2146 18.4134C47.2521 18.389 47.2708 18.3666 47.2933 18.3628C50.2308 17.754 52.2878 16.0735 53.6891 13.5763C53.8408 13.3065 53.794 13.2053 53.5223 13.0929C53.1926 12.9543 52.8816 12.7745 52.5631 12.6152C51.87 12.2649 51.8569 12.2593 51.4522 12.8869C50.508 14.4849 48.9438 15.6595 47.0985 16.1578C44.7605 16.7704 42.5423 16.5775 40.594 15.0694C39.7903 14.4437 39.1365 13.6587 38.6757 12.7688C38.2148 11.879 37.9581 10.9067 37.9225 9.91378C37.8944 9.54097 37.9619 9.46042 38.3516 9.46042C43.2037 9.47353 48.0576 9.47728 52.9097 9.46979H54.2099C54.3785 9.46979 54.4646 9.45479 54.4609 9.24872C54.4684 7.87365 54.1649 6.51543 53.5729 5.26213C51.9318 2.02115 49.2454 0.239556 45.4705 0.0391023C43.4228 -0.140744 41.3752 0.372565 39.6817 1.48911C38.5052 2.27594 37.5216 3.29881 36.8004 4.48655C36.0791 5.67428 35.6351 6.99877 35.5021 8.36635C34.9888 12.5628 37.8888 17.7465 43.3011 18.4996C40.95 18.9717 38.8499 20.2268 37.3736 22.044C35.8918 23.8668 35.1818 26.158 35.386 28.4604C35.5209 30.4537 36.3789 32.3383 37.812 33.7884C39.2152 35.2665 41.0792 36.2744 43.1268 36.6603C37.4654 38.026 34.9944 43.4326 35.9817 47.7339C36.8772 51.6437 40.4479 55.413 46.3341 54.9859C50.8396 54.6618 54.4047 51.1098 54.9236 46.9153C55.214 44.6934 54.6651 42.4453 53.3762 40.5776C52.0873 38.7098 50.1446 37.3459 47.8965 36.7333L47.9021 36.7296Z" fill="#E06B00"/>
<path d="M17.6809 4.23782C17.3924 4.24719 17.1076 4.17226 16.8659 4.02426C16.6224 3.87626 16.4313 3.66082 16.3189 3.40791C16.2065 3.155 16.1747 2.87399 16.229 2.60235C16.2852 2.33071 16.4238 2.08342 16.6299 1.88859C16.836 1.69375 17.0964 1.56448 17.3811 1.51578C17.6659 1.46707 17.9581 1.50079 18.2204 1.61507C18.4827 1.72747 18.7038 1.91481 18.8555 2.15086C19.0072 2.38691 19.0784 2.66043 19.0634 2.93581C19.0559 3.28239 18.908 3.61211 18.6494 3.85565C18.3909 4.0992 18.0443 4.23595 17.6827 4.23595L17.6809 4.23782Z" fill="#2D0DB2"/>
<path d="M5.11857 43.249C5.10171 43.5918 4.9481 43.9141 4.68957 44.152C4.43104 44.388 4.08634 44.5192 3.72852 44.5173C3.3707 44.5173 3.02786 44.3805 2.7712 44.1426C2.51455 43.9047 2.36468 43.5787 2.35156 43.2359C2.36655 42.8874 2.52204 42.5577 2.78807 42.3179C3.05222 42.0781 3.40629 41.9489 3.76973 41.9564C4.12567 41.962 4.46663 42.1006 4.71766 42.3423C4.9687 42.584 5.11296 42.9099 5.12045 43.2509L5.11857 43.249Z" fill="#2D0DB2"/>
<path d="M32.4104 44.517C32.0544 44.5189 31.7097 44.3877 31.455 44.1498C31.1983 43.9119 31.0484 43.5878 31.0391 43.2468C31.0503 42.8984 31.2039 42.5687 31.4643 42.327C31.7247 42.0853 32.0751 41.9504 32.4385 41.9542C32.7944 41.9561 33.1373 42.0909 33.392 42.3307C33.6468 42.5705 33.7948 42.8946 33.8042 43.2356C33.8042 43.4079 33.7649 43.5784 33.6937 43.7377C33.6225 43.8969 33.5194 44.0393 33.3883 44.1592C33.2572 44.2791 33.1054 44.3727 32.9368 44.4346C32.7682 44.4964 32.5902 44.5245 32.4104 44.5207V44.517Z" fill="#2D0DB2"/>
</svg>
