<svg width="55" height="25" viewBox="0 0 55 25" fill="none" xmlns="http://www.w3.org/2000/svg">
<g clip-path="url(#clip0_921_27)">
<path d="M28.385 1.58789L27.9038 19.9366H27.7566L25.3714 1.58789H22.305L23.8091 12.7437L22.2655 19.9004L20.0099 1.58789H16.9227L19.9066 23.749H21.7095L24.2233 15.798L25.2901 23.749H29.0804L32.0644 1.58789H28.385Z" fill="#1C0029"/>
<path d="M46.4657 1.58789L40.3011 23.749H43.8432L44.8792 17.7085H49.8605L50.8416 23.749H54.0442L49.2662 1.58789H46.4657ZM45.1165 16.2957L47.4116 2.647H47.6149L49.6298 16.2957H45.1165Z" fill="#1C0029"/>
<path d="M15.1308 1.58789H12.2314V23.749H15.1308V1.58789Z" fill="#1C0029"/>
<path d="M6.53923 1.58789V20.2849C6.53923 21.3187 6.4766 22.0252 6.35245 22.4042C6.2283 22.7843 6.03494 22.9733 5.77236 22.9733C5.37135 22.9733 4.86487 22.5459 4.25072 21.6923C3.68051 20.9001 2.94661 19.562 2.0501 17.691L1.30081 15.9825H0L0.886619 22.5624C1.50736 22.9843 2.18414 23.3436 2.91584 23.638C3.64755 23.9335 4.32433 24.0906 4.94507 24.0906C6.32499 24.0906 7.42035 23.4326 8.22787 22.135C9.03538 20.8375 9.43969 18.85 9.43969 16.1715L9.39794 1.58789H6.54032H6.53923Z" fill="#1C0029"/>
<path d="M40.969 1.58789L39.0156 17.0636L35.7119 1.58789H32.9367L36.37 16.8615L38.5278 18.95L38.1202 19.919H35.1977L34.6352 24.0917C37.4983 24.0917 39.0134 21.3286 39.4759 19.5191L44.4331 1.58789H40.969Z" fill="#1C0029"/>
<path d="M53.9157 2.33937C53.8937 2.30641 53.8662 2.28004 53.8333 2.26247C53.8212 2.25587 53.8069 2.24928 53.7926 2.24379C53.808 2.23939 53.8234 2.2339 53.8377 2.22841C53.8739 2.21303 53.9047 2.19325 53.9288 2.16798C53.953 2.14271 53.9717 2.11415 53.9838 2.08119C53.9959 2.04823 54.0025 2.01197 54.0025 1.97462C54.0025 1.93287 53.9959 1.89332 53.9816 1.85926C53.9684 1.8252 53.9486 1.79334 53.9223 1.76807C53.897 1.7428 53.8662 1.72083 53.8289 1.70215C53.7926 1.68457 53.752 1.67139 53.7047 1.6626C53.6586 1.65381 53.608 1.64941 53.5542 1.64941H53.1521V2.72171H53.374V2.34706H53.5377C53.5762 2.34706 53.6102 2.35256 53.6388 2.36244C53.6652 2.37233 53.6871 2.38771 53.7036 2.40969C53.7212 2.43276 53.7355 2.46242 53.7443 2.49978L53.8003 2.72171H54.0387L53.9662 2.46682C53.9519 2.41518 53.9343 2.37233 53.9135 2.34047L53.9157 2.33937ZM53.7772 1.99769C53.7772 2.05372 53.7597 2.09327 53.7234 2.11964C53.6849 2.14711 53.6245 2.16139 53.5454 2.16139H53.3773V1.83619H53.5487C53.6289 1.83619 53.6882 1.85047 53.7256 1.87794C53.7608 1.9032 53.7783 1.94276 53.7783 1.99879L53.7772 1.99769Z" fill="#1C0029"/>
<path d="M53.5256 0.908203C52.8225 0.908203 52.2501 1.48061 52.2501 2.18375C52.2501 2.88689 52.8225 3.45929 53.5256 3.45929C54.2288 3.45929 54.8012 2.88689 54.8012 2.18375C54.8012 1.48061 54.2288 0.908203 53.5256 0.908203ZM54.5034 2.18375C54.5034 2.72319 54.0651 3.16156 53.5256 3.16156C52.9862 3.16156 52.5478 2.72319 52.5478 2.18375C52.5478 1.64431 52.9862 1.20594 53.5256 1.20594C54.0651 1.20594 54.5034 1.64431 54.5034 2.18375Z" fill="#1C0029"/>
</g>
<defs>
<clipPath id="clip0_921_27">
<rect width="54.8023" height="23.1839" fill="white" transform="translate(0 0.908203)"/>
</clipPath>
</defs>
</svg>
